<svg id="Layer_1" data-name="Layer 1" xmlns="http://www.w3.org/2000/svg" viewBox="0 0 171.83 77.55"><defs><style>.cls-1{fill:#ccbe2d;}.cls-2{fill:#231f20;}.cls-2,.cls-3{stroke:#fff;stroke-miterlimit:10;stroke-width:2px;}.cls-3{fill:#fff;}</style></defs><rect class="cls-1" width="171.83" height="77.55"/><path class="cls-2" d="M23.55,58.63a10.38,10.38,0,0,0,6.63,2.46c4,0,7.48-2.63,7.48-8.5,0-5.27-3.23-8.41-6.8-10.71-4-2.55-7.31-5.61-7.31-10.88,0-6,3.49-9.1,8.08-9.1a11.61,11.61,0,0,1,6.12,2l-.26.93a10.37,10.37,0,0,0-6-1.95c-4.08,0-7,2.8-7,8.33,0,4.68,3.06,7.4,6.8,9.86s7.31,6,7.31,11.65c0,6.37-4,9.35-8.5,9.35a11.63,11.63,0,0,1-6.88-2.38Z"/><path class="cls-3" d="M59,60.58A7.11,7.11,0,0,1,54.73,62c-3.74,0-6.29-2.64-6.29-8.59v-30H44.61V22.5h3.83V13.15h1V22.5h8.67v.93H49.46V53.36c0,5.27,1.95,7.73,5.27,7.73a5.79,5.79,0,0,0,4-1.53Z"/><path class="cls-3" d="M76.44,61.43V22.5l1-.51v9.18c1.44-6.38,4.67-9.27,8-9.27a7.24,7.24,0,0,1,4.25,1.53l-.34,1.11a6,6,0,0,0-3.91-1.7c-3.66,0-6.72,4-8,13.18V61.43Z"/><path class="cls-3" d="M113.54,61.77c-1.78.34-4.5.09-4.5-4.33V57.1H109c-2,3.57-4.42,4.93-7.39,4.93-3.91,0-7.31-3.23-7.31-9.18,0-7.57,6.2-13.09,14.79-14.28v-6.8c0-6.55-2-8.93-6-8.93-2.81,0-5.27,1.44-7.74,4.25L95.1,26c2.46-2.72,5.18-4.08,8-4.08,4.42,0,7,2.64,7,9.87V57.44c0,3.91,2.29,3.65,3.57,3.31ZM109,39.5c-8,1.28-13.77,6.21-13.77,13.35,0,5.27,2.89,8.24,6.29,8.24,3.14,0,5.69-1.78,7.48-6.29Z"/><path class="cls-3" d="M141.83,61.6l-7.91-36.72L126,61.6h-1.36l-6.89-39.1h1.11l6.54,36.81,7.91-36.81h1.19l7.9,36.81L149,22.5h1.1l-6.88,39.1Z"/><circle cx="68.21" cy="58.99" r="3.2"/><path class="cls-1" d="M125,62.6h.79c-.14.63-.29,1.45-.42,2.08C125.21,64.06,125.07,63.22,125,62.6Z"/><path class="cls-1" d="M133.52,21.5h.8c-.14-.63-.29-1.45-.42-2.08C133.78,20.05,133.64,20.88,133.52,21.5Z"/><path class="cls-1" d="M142.09,62.6h.8c-.14.63-.29,1.45-.42,2.08C142.35,64.06,142.21,63.22,142.09,62.6Z"/></svg>