<svg id="Layer_1" data-name="Layer 1" xmlns="http://www.w3.org/2000/svg" viewBox="0 0 288.89 198"><defs><style>.cls-1{fill:#ccbe2d;}.cls-2{fill:#fff;}.cls-3{fill:#010101;}</style></defs><rect class="cls-1" x="48.76" y="53.69" width="178.8" height="77.55"/><path class="cls-2" d="M74.31,112.32a10.38,10.38,0,0,0,6.63,2.46c4,0,7.48-2.63,7.48-8.5,0-5.27-3.23-8.41-6.8-10.71-4-2.55-7.31-5.61-7.31-10.88,0-6,3.49-9.1,8.08-9.1a11.61,11.61,0,0,1,6.12,2l-.26.93a10.37,10.37,0,0,0-6-2c-4.08,0-7,2.8-7,8.33,0,4.68,3.06,7.4,6.8,9.86s7.31,6,7.31,11.65c0,6.37-4,9.35-8.5,9.35a11.63,11.63,0,0,1-6.88-2.38Z"/><path class="cls-2" d="M108.74,114.27a7.11,7.11,0,0,1-4.25,1.45c-3.74,0-6.3-2.64-6.3-8.59v-30H94.37v-.93h3.82V66.84h1v9.35h8.67v.93H99.22v29.93c0,5.27,2,7.73,5.27,7.73a5.79,5.79,0,0,0,4-1.53Z"/><path class="cls-2" d="M125.19,115.12V76.19l1-.51v9.18c1.45-6.38,4.68-9.27,8-9.27a7.24,7.24,0,0,1,4.25,1.53l-.34,1.11a6,6,0,0,0-3.91-1.7c-3.66,0-6.72,4-8,13.18v25.41Z"/><path class="cls-2" d="M160.3,115.46c-1.78.34-4.5.09-4.5-4.33v-.34h-.09c-2,3.57-4.42,4.93-7.39,4.93-3.91,0-7.31-3.23-7.31-9.18,0-7.57,6.2-13.09,14.79-14.28v-6.8c0-6.55-2-8.93-6-8.93-2.81,0-5.27,1.45-7.74,4.25l-.25-1.11c2.46-2.72,5.18-4.08,8-4.08,4.42,0,7,2.64,7,9.87v25.67c0,3.91,2.29,3.65,3.57,3.31Zm-4.5-22.27c-8,1.28-13.77,6.21-13.77,13.35,0,5.27,2.89,8.24,6.29,8.24,3.14,0,5.69-1.78,7.48-6.29Z"/><path class="cls-2" d="M187.59,115.29l-7.91-36.72-7.9,36.72h-1.37l-6.88-39.1h1.1L171.18,113l7.91-36.81h1.19l7.9,36.81,6.55-36.81h1.1L189,115.29Z"/><circle class="cls-3" cx="115.97" cy="113.51" r="2.31"/></svg>